<svg width="214" height="40" viewBox="0 0 214 40" fill="none" xmlns="http://www.w3.org/2000/svg">
    <g clip-path="url(#clip0_8194_13717)">
        <path
            d="M25.8856 3.70508C33.2908 3.70508 39.294 9.69215 39.294 17.0776C39.294 24.463 33.2908 30.4501 25.8856 30.4501C24.1693 30.4501 22.5285 30.1283 21.0201 29.5422C22.1881 29.0045 23.4725 28.0027 24.6268 26.7132C25.0389 26.7662 25.4591 26.7937 25.8856 26.7937C31.266 26.7937 35.6277 22.4436 35.6277 17.0776C35.6277 11.7116 31.266 7.36156 25.8856 7.36156C25.4402 7.36156 25.0018 7.39153 24.5722 7.44927C23.6282 6.44072 22.3518 5.34776 21.0107 4.6165C22.5217 4.02812 24.1658 3.70508 25.8856 3.70508Z"
            fill="#7C5CFC" />
        <path
            d="M15.7455 8.32799C16.5638 8.46542 17.352 8.74057 17.9478 8.99046C18.5706 9.25164 19.0527 9.48938 19.4671 9.76848C17.4299 11.5493 16.1436 14.1636 16.1436 17.0776C16.1436 19.998 17.4356 22.6174 19.4806 24.3985C19.2041 24.601 18.8911 24.7962 18.529 24.983C17.6032 25.4606 16.6468 25.7522 15.8001 25.8894C13.7315 23.5362 12.4773 20.453 12.4773 17.0776C12.4773 13.7319 13.7093 10.6731 15.7455 8.32799Z"
            fill="#7C5CFC" />
        <path
            d="M9.81122 4.43919C12.5393 3.49851 15.4989 3.46091 18.2501 4.3321C20.9909 5.2 23.379 6.92372 25.0623 9.24825L25.835 8.69381L25.5046 13.0897L21.2203 12.0053L22.0863 11.3838C20.8635 9.69753 19.13 8.44708 17.1407 7.81715C15.1418 7.18417 12.9914 7.21147 11.0092 7.89494C9.02709 8.57841 7.31901 9.88156 6.13895 11.6107C4.95888 13.3398 4.3698 15.4026 4.45934 17.4924C4.54887 19.5822 5.31225 21.5873 6.63591 23.2098C7.95957 24.8322 9.77285 25.9853 11.8062 26.4977C13.8396 27.01 15.9845 26.8543 17.922 26.0535C19.6536 25.3379 21.1369 24.1411 22.1993 22.6123L21.2203 21.9097L25.5046 20.8253L25.835 25.2212L25.1757 24.748C23.716 26.8269 21.6889 28.4547 19.3255 29.4315C16.6589 30.5336 13.7068 30.748 10.9082 30.0428C8.10959 29.3376 5.61389 27.7505 3.79209 25.5175C1.97028 23.2845 0.919638 20.5247 0.796409 17.6485C0.67318 14.7723 1.48392 11.9332 3.10808 9.55335C4.73224 7.17347 7.08313 5.37988 9.81122 4.43919Z"
            fill="#7C5CFC" />
        <path
            d="M2.15005 35.4995C2.15005 35.2051 2.21578 34.9422 2.34726 34.7107C2.48159 34.4763 2.66307 34.2948 2.89172 34.1662C3.12322 34.0347 3.38188 33.969 3.66769 33.969C4.00208 33.969 4.29503 34.0548 4.54654 34.2262C4.79805 34.3977 4.97382 34.6349 5.07386 34.9379H4.38363C4.31504 34.795 4.21786 34.6878 4.09211 34.6164C3.96921 34.5449 3.82631 34.5092 3.6634 34.5092C3.48906 34.5092 3.33329 34.5506 3.1961 34.6335C3.06177 34.7135 2.95603 34.8279 2.87886 34.9765C2.80455 35.1251 2.76739 35.2994 2.76739 35.4995C2.76739 35.6967 2.80455 35.8711 2.87886 36.0225C2.95603 36.1712 3.06177 36.2869 3.1961 36.3698C3.33329 36.4498 3.48906 36.4898 3.6634 36.4898C3.82631 36.4898 3.96921 36.4541 4.09211 36.3827C4.21786 36.3083 4.31504 36.1997 4.38363 36.0568H5.07386C4.97382 36.3626 4.79805 36.6013 4.54654 36.7728C4.29789 36.9414 4.00494 37.0257 3.66769 37.0257C3.38188 37.0257 3.12322 36.9614 2.89172 36.8328C2.66307 36.7013 2.48159 36.5198 2.34726 36.2883C2.21578 36.0568 2.15005 35.7939 2.15005 35.4995ZM6.97553 37.03C6.69543 37.03 6.43821 36.9643 6.20385 36.8328C5.96948 36.7013 5.78371 36.5198 5.64652 36.2883C5.50933 36.054 5.44074 35.7896 5.44074 35.4952C5.44074 35.2037 5.50933 34.9422 5.64652 34.7107C5.78371 34.4763 5.96948 34.2934 6.20385 34.1619C6.43821 34.0305 6.69543 33.9647 6.97553 33.9647C7.25847 33.9647 7.5157 34.0305 7.74721 34.1619C7.98157 34.2934 8.16591 34.4763 8.30024 34.7107C8.43743 34.9422 8.50602 35.2037 8.50602 35.4952C8.50602 35.7896 8.43743 36.054 8.30024 36.2883C8.16591 36.5198 7.98157 36.7013 7.74721 36.8328C7.51284 36.9643 7.25562 37.03 6.97553 37.03ZM6.97553 36.4941C7.15558 36.4941 7.31421 36.4541 7.45139 36.3741C7.58858 36.2912 7.69576 36.174 7.77293 36.0225C7.8501 35.8711 7.88868 35.6953 7.88868 35.4952C7.88868 35.2952 7.8501 35.1208 7.77293 34.9722C7.69576 34.8207 7.58858 34.705 7.45139 34.6249C7.31421 34.5449 7.15558 34.5049 6.97553 34.5049C6.79547 34.5049 6.63541 34.5449 6.49537 34.6249C6.35818 34.705 6.251 34.8207 6.17384 34.9722C6.09667 35.1208 6.05808 35.2952 6.05808 35.4952C6.05808 35.6953 6.09667 35.8711 6.17384 36.0225C6.251 36.174 6.35818 36.2912 6.49537 36.3741C6.63541 36.4541 6.79547 36.4941 6.97553 36.4941ZM12.215 34.0076V37H11.6148V35.0537L10.8132 37H10.3587L9.55275 35.0537V37H8.95255V34.0076H9.6342L10.5859 36.2326L11.5377 34.0076H12.215ZM14.9906 34.9336C14.9906 35.0937 14.952 35.2437 14.8748 35.3838C14.8005 35.5238 14.6819 35.6367 14.519 35.7224C14.3589 35.8082 14.156 35.8511 13.9102 35.8511H13.4086V37H12.8084V34.0076H13.9102C14.1417 34.0076 14.3389 34.0476 14.5018 34.1276C14.6648 34.2077 14.7862 34.3177 14.8663 34.4577C14.9491 34.5978 14.9906 34.7564 14.9906 34.9336ZM13.8845 35.3666C14.0503 35.3666 14.1732 35.3295 14.2532 35.2551C14.3332 35.178 14.3732 35.0708 14.3732 34.9336C14.3732 34.6421 14.2103 34.4963 13.8845 34.4963H13.4086V35.3666H13.8845ZM16.0169 36.5241H17.0029V37H15.4167V34.0076H16.0169V36.5241ZM17.9846 34.0076V37H17.3844V34.0076H17.9846ZM20.4125 36.4298H19.2207L19.0235 37H18.3933L19.4693 34.0033H20.1681L21.2442 37H20.6097L20.4125 36.4298ZM20.2496 35.9497L19.8166 34.6978L19.3836 35.9497H20.2496ZM24.2058 37H23.6056L22.2466 34.9465V37H21.6464V34.0033H22.2466L23.6056 36.0611V34.0033H24.2058V37ZM24.6532 35.4995C24.6532 35.2051 24.7189 34.9422 24.8504 34.7107C24.9847 34.4763 25.1662 34.2948 25.3949 34.1662C25.6264 34.0347 25.885 33.969 26.1708 33.969C26.5052 33.969 26.7982 34.0548 27.0497 34.2262C27.3012 34.3977 27.477 34.6349 27.577 34.9379H26.8868C26.8182 34.795 26.721 34.6878 26.5952 34.6164C26.4723 34.5449 26.3294 34.5092 26.1665 34.5092C25.9922 34.5092 25.8364 34.5506 25.6992 34.6335C25.5649 34.7135 25.4592 34.8279 25.382 34.9765C25.3077 35.1251 25.2705 35.2994 25.2705 35.4995C25.2705 35.6967 25.3077 35.8711 25.382 36.0225C25.4592 36.1712 25.5649 36.2869 25.6992 36.3698C25.8364 36.4498 25.9922 36.4898 26.1665 36.4898C26.3294 36.4898 26.4723 36.4541 26.5952 36.3827C26.721 36.3083 26.8182 36.1997 26.8868 36.0568H27.577C27.477 36.3626 27.3012 36.6013 27.0497 36.7728C26.801 36.9414 26.5081 37.0257 26.1708 37.0257C25.885 37.0257 25.6264 36.9614 25.3949 36.8328C25.1662 36.7013 24.9847 36.5198 24.8504 36.2883C24.7189 36.0568 24.6532 35.7939 24.6532 35.4995ZM28.6898 34.492V35.2423H29.6973V35.7182H28.6898V36.5113H29.8259V37H28.0896V34.0033H29.8259V34.492H28.6898ZM32.7819 37.03C32.5018 37.03 32.2446 36.9643 32.0102 36.8328C31.7759 36.7013 31.5901 36.5198 31.4529 36.2883C31.3157 36.054 31.2471 35.7896 31.2471 35.4952C31.2471 35.2037 31.3157 34.9422 31.4529 34.7107C31.5901 34.4763 31.7759 34.2934 32.0102 34.1619C32.2446 34.0305 32.5018 33.9647 32.7819 33.9647C33.0649 33.9647 33.3221 34.0305 33.5536 34.1619C33.788 34.2934 33.9723 34.4763 34.1066 34.7107C34.2438 34.9422 34.3124 35.2037 34.3124 35.4952C34.3124 35.7896 34.2438 36.054 34.1066 36.2883C33.9723 36.5198 33.788 36.7013 33.5536 36.8328C33.3192 36.9643 33.062 37.03 32.7819 37.03ZM32.7819 36.4941C32.962 36.4941 33.1206 36.4541 33.2578 36.3741C33.395 36.2912 33.5021 36.174 33.5793 36.0225C33.6565 35.8711 33.6951 35.6953 33.6951 35.4952C33.6951 35.2952 33.6565 35.1208 33.5793 34.9722C33.5021 34.8207 33.395 34.705 33.2578 34.6249C33.1206 34.5449 32.962 34.5049 32.7819 34.5049C32.6019 34.5049 32.4418 34.5449 32.3018 34.6249C32.1646 34.705 32.0574 34.8207 31.9802 34.9722C31.9031 35.1208 31.8645 35.2952 31.8645 35.4952C31.8645 35.6953 31.9031 35.8711 31.9802 36.0225C32.0574 36.174 32.1646 36.2912 32.3018 36.3741C32.4418 36.4541 32.6019 36.4941 32.7819 36.4941ZM37.3183 37H36.7182L35.3591 34.9465V37H34.7589V34.0033H35.3591L36.7182 36.0611V34.0033H37.3183V37ZM38.5117 34.492V35.2423H39.5191V35.7182H38.5117V36.5113H39.6478V37H37.9115V34.0033H39.6478V34.492H38.5117Z"
            fill="#7C5CFC" />
        <path
            d="M48.7 20C48.7 18.6267 49.0067 17.4 49.62 16.32C50.2467 15.2267 51.0933 14.38 52.16 13.78C53.24 13.1667 54.4467 12.86 55.78 12.86C57.34 12.86 58.7067 13.26 59.88 14.06C61.0533 14.86 61.8733 15.9667 62.34 17.38H59.12C58.8 16.7133 58.3467 16.2133 57.76 15.88C57.1867 15.5467 56.52 15.38 55.76 15.38C54.9467 15.38 54.22 15.5733 53.58 15.96C52.9533 16.3333 52.46 16.8667 52.1 17.56C51.7533 18.2533 51.58 19.0667 51.58 20C51.58 20.92 51.7533 21.7333 52.1 22.44C52.46 23.1333 52.9533 23.6733 53.58 24.06C54.22 24.4333 54.9467 24.62 55.76 24.62C56.52 24.62 57.1867 24.4533 57.76 24.12C58.3467 23.7733 58.8 23.2667 59.12 22.6H62.34C61.8733 24.0267 61.0533 25.14 59.88 25.94C58.72 26.7267 57.3533 27.12 55.78 27.12C54.4467 27.12 53.24 26.82 52.16 26.22C51.0933 25.6067 50.2467 24.76 49.62 23.68C49.0067 22.6 48.7 21.3733 48.7 20ZM69.6516 27.18C68.5849 27.18 67.6249 26.9467 66.7716 26.48C65.9182 26 65.2449 25.3267 64.7516 24.46C64.2716 23.5933 64.0316 22.5933 64.0316 21.46C64.0316 20.3267 64.2782 19.3267 64.7716 18.46C65.2782 17.5933 65.9649 16.9267 66.8316 16.46C67.6982 15.98 68.6649 15.74 69.7316 15.74C70.7982 15.74 71.7649 15.98 72.6316 16.46C73.4982 16.9267 74.1782 17.5933 74.6716 18.46C75.1782 19.3267 75.4316 20.3267 75.4316 21.46C75.4316 22.5933 75.1716 23.5933 74.6516 24.46C74.1449 25.3267 73.4516 26 72.5716 26.48C71.7049 26.9467 70.7316 27.18 69.6516 27.18ZM69.6516 24.74C70.1582 24.74 70.6316 24.62 71.0716 24.38C71.5249 24.1267 71.8849 23.7533 72.1516 23.26C72.4182 22.7667 72.5516 22.1667 72.5516 21.46C72.5516 20.4067 72.2716 19.6 71.7116 19.04C71.1649 18.4667 70.4916 18.18 69.6916 18.18C68.8916 18.18 68.2182 18.4667 67.6716 19.04C67.1382 19.6 66.8716 20.4067 66.8716 21.46C66.8716 22.5133 67.1316 23.3267 67.6516 23.9C68.1849 24.46 68.8516 24.74 69.6516 24.74ZM91.2455 15.76C92.6055 15.76 93.6988 16.18 94.5255 17.02C95.3655 17.8467 95.7855 19.0067 95.7855 20.5V27H92.9855V20.88C92.9855 20.0133 92.7655 19.3533 92.3255 18.9C91.8855 18.4333 91.2855 18.2 90.5255 18.2C89.7655 18.2 89.1588 18.4333 88.7055 18.9C88.2655 19.3533 88.0455 20.0133 88.0455 20.88V27H85.2455V20.88C85.2455 20.0133 85.0255 19.3533 84.5855 18.9C84.1455 18.4333 83.5455 18.2 82.7855 18.2C82.0121 18.2 81.3988 18.4333 80.9455 18.9C80.5055 19.3533 80.2855 20.0133 80.2855 20.88V27H77.4855V15.92H80.2855V17.26C80.6455 16.7933 81.1055 16.4267 81.6655 16.16C82.2388 15.8933 82.8655 15.76 83.5455 15.76C84.4121 15.76 85.1855 15.9467 85.8655 16.32C86.5455 16.68 87.0721 17.2 87.4455 17.88C87.8055 17.24 88.3255 16.7267 89.0055 16.34C89.6988 15.9533 90.4455 15.76 91.2455 15.76ZM101.243 17.52C101.603 17.0133 102.096 16.5933 102.723 16.26C103.363 15.9133 104.089 15.74 104.903 15.74C105.849 15.74 106.703 15.9733 107.463 16.44C108.236 16.9067 108.843 17.5733 109.283 18.44C109.736 19.2933 109.963 20.2867 109.963 21.42C109.963 22.5533 109.736 23.56 109.283 24.44C108.843 25.3067 108.236 25.98 107.463 26.46C106.703 26.94 105.849 27.18 104.903 27.18C104.089 27.18 103.369 27.0133 102.743 26.68C102.129 26.3467 101.629 25.9267 101.243 25.42V32.28H98.4425V15.92H101.243V17.52ZM107.103 21.42C107.103 20.7533 106.963 20.18 106.683 19.7C106.416 19.2067 106.056 18.8333 105.603 18.58C105.163 18.3267 104.683 18.2 104.163 18.2C103.656 18.2 103.176 18.3333 102.723 18.6C102.283 18.8533 101.923 19.2267 101.643 19.72C101.376 20.2133 101.243 20.7933 101.243 21.46C101.243 22.1267 101.376 22.7067 101.643 23.2C101.923 23.6933 102.283 24.0733 102.723 24.34C103.176 24.5933 103.656 24.72 104.163 24.72C104.683 24.72 105.163 24.5867 105.603 24.32C106.056 24.0533 106.416 23.6733 106.683 23.18C106.963 22.6867 107.103 22.1 107.103 21.42ZM114.797 12.2V27H111.997V12.2H114.797ZM118.984 14.6C118.49 14.6 118.077 14.4467 117.744 14.14C117.424 13.82 117.264 13.4267 117.264 12.96C117.264 12.4933 117.424 12.1067 117.744 11.8C118.077 11.48 118.49 11.32 118.984 11.32C119.477 11.32 119.884 11.48 120.204 11.8C120.537 12.1067 120.704 12.4933 120.704 12.96C120.704 13.4267 120.537 13.82 120.204 14.14C119.884 14.4467 119.477 14.6 118.984 14.6ZM120.364 15.92V27H117.564V15.92H120.364ZM122.41 21.42C122.41 20.3 122.63 19.3067 123.07 18.44C123.523 17.5733 124.13 16.9067 124.89 16.44C125.663 15.9733 126.523 15.74 127.47 15.74C128.297 15.74 129.017 15.9067 129.63 16.24C130.257 16.5733 130.757 16.9933 131.13 17.5V15.92H133.95V27H131.13V25.38C130.77 25.9 130.27 26.3333 129.63 26.68C129.003 27.0133 128.277 27.18 127.45 27.18C126.517 27.18 125.663 26.94 124.89 26.46C124.13 25.98 123.523 25.3067 123.07 24.44C122.63 23.56 122.41 22.5533 122.41 21.42ZM131.13 21.46C131.13 20.78 130.997 20.2 130.73 19.72C130.463 19.2267 130.103 18.8533 129.65 18.6C129.197 18.3333 128.71 18.2 128.19 18.2C127.67 18.2 127.19 18.3267 126.75 18.58C126.31 18.8333 125.95 19.2067 125.67 19.7C125.403 20.18 125.27 20.7533 125.27 21.42C125.27 22.0867 125.403 22.6733 125.67 23.18C125.95 23.6733 126.31 24.0533 126.75 24.32C127.203 24.5867 127.683 24.72 128.19 24.72C128.71 24.72 129.197 24.5933 129.65 24.34C130.103 24.0733 130.463 23.7 130.73 23.22C130.997 22.7267 131.13 22.14 131.13 21.46ZM142.825 15.76C144.145 15.76 145.211 16.18 146.025 17.02C146.838 17.8467 147.245 19.0067 147.245 20.5V27H144.445V20.88C144.445 20 144.225 19.3267 143.785 18.86C143.345 18.38 142.745 18.14 141.985 18.14C141.211 18.14 140.598 18.38 140.145 18.86C139.705 19.3267 139.485 20 139.485 20.88V27H136.685V15.92H139.485V17.3C139.858 16.82 140.331 16.4467 140.905 16.18C141.491 15.9 142.131 15.76 142.825 15.76ZM149.187 21.46C149.187 20.3133 149.421 19.3133 149.887 18.46C150.354 17.5933 151.001 16.9267 151.827 16.46C152.654 15.98 153.601 15.74 154.667 15.74C156.041 15.74 157.174 16.0867 158.067 16.78C158.974 17.46 159.581 18.42 159.887 19.66H156.867C156.707 19.18 156.434 18.8067 156.047 18.54C155.674 18.26 155.207 18.12 154.647 18.12C153.847 18.12 153.214 18.4133 152.747 19C152.281 19.5733 152.047 20.3933 152.047 21.46C152.047 22.5133 152.281 23.3333 152.747 23.92C153.214 24.4933 153.847 24.78 154.647 24.78C155.781 24.78 156.521 24.2733 156.867 23.26H159.887C159.581 24.46 158.974 25.4133 158.067 26.12C157.161 26.8267 156.027 27.18 154.667 27.18C153.601 27.18 152.654 26.9467 151.827 26.48C151.001 26 150.354 25.3333 149.887 24.48C149.421 23.6133 149.187 22.6067 149.187 21.46ZM172.239 21.22C172.239 21.62 172.212 21.98 172.159 22.3H164.059C164.125 23.1 164.405 23.7267 164.899 24.18C165.392 24.6333 165.999 24.86 166.719 24.86C167.759 24.86 168.499 24.4133 168.939 23.52H171.959C171.639 24.5867 171.025 25.4667 170.119 26.16C169.212 26.84 168.099 27.18 166.779 27.18C165.712 27.18 164.752 26.9467 163.899 26.48C163.059 26 162.399 25.3267 161.919 24.46C161.452 23.5933 161.219 22.5933 161.219 21.46C161.219 20.3133 161.452 19.3067 161.919 18.44C162.385 17.5733 163.039 16.9067 163.879 16.44C164.719 15.9733 165.685 15.74 166.779 15.74C167.832 15.74 168.772 15.9667 169.599 16.42C170.439 16.8733 171.085 17.52 171.539 18.36C172.005 19.1867 172.239 20.14 172.239 21.22ZM169.339 20.42C169.325 19.7 169.065 19.1267 168.559 18.7C168.052 18.26 167.432 18.04 166.699 18.04C166.005 18.04 165.419 18.2533 164.939 18.68C164.472 19.0933 164.185 19.6733 164.079 20.42H169.339ZM180.762 27.14C179.456 27.14 178.256 26.8333 177.162 26.22C176.069 25.6067 175.202 24.76 174.562 23.68C173.922 22.5867 173.602 21.3533 173.602 19.98C173.602 18.62 173.922 17.4 174.562 16.32C175.202 15.2267 176.069 14.3733 177.162 13.76C178.256 13.1467 179.456 12.84 180.762 12.84C182.082 12.84 183.282 13.1467 184.362 13.76C185.456 14.3733 186.316 15.2267 186.942 16.32C187.582 17.4 187.902 18.62 187.902 19.98C187.902 21.3533 187.582 22.5867 186.942 23.68C186.316 24.76 185.456 25.6067 184.362 26.22C183.269 26.8333 182.069 27.14 180.762 27.14ZM180.762 24.64C181.602 24.64 182.342 24.4533 182.982 24.08C183.622 23.6933 184.122 23.1467 184.482 22.44C184.842 21.7333 185.022 20.9133 185.022 19.98C185.022 19.0467 184.842 18.2333 184.482 17.54C184.122 16.8333 183.622 16.2933 182.982 15.92C182.342 15.5467 181.602 15.36 180.762 15.36C179.922 15.36 179.176 15.5467 178.522 15.92C177.882 16.2933 177.382 16.8333 177.022 17.54C176.662 18.2333 176.482 19.0467 176.482 19.98C176.482 20.9133 176.662 21.7333 177.022 22.44C177.382 23.1467 177.882 23.6933 178.522 24.08C179.176 24.4533 179.922 24.64 180.762 24.64ZM201.925 27H199.125L192.785 17.42V27H189.985V13.02H192.785L199.125 22.62V13.02H201.925V27ZM207.493 15.3V18.8H212.193V21.02H207.493V24.72H212.793V27H204.693V13.02H212.793V15.3H207.493Z"
            fill="#7C5CFC" />
    </g>
    <defs>
        <clipPath id="clip0_8194_13717">
            <rect width="214" height="40" fill="white" />
        </clipPath>
    </defs>
</svg>